<?xml version="1.0" encoding="utf-8"?>
<!-- Generator: Adobe Illustrator 15.1.0, SVG Export Plug-In . SVG Version: 6.00 Build 0)  -->
<!DOCTYPE svg PUBLIC "-//W3C//DTD SVG 1.1//EN" "http://www.w3.org/Graphics/SVG/1.1/DTD/svg11.dtd">
<svg version="1.1" id="Layer_1" xmlns="http://www.w3.org/2000/svg" xmlns:xlink="http://www.w3.org/1999/xlink" x="0px" y="0px"
	 width="612px" height="792px" viewBox="0 0 612 792" enable-background="new 0 0 612 792" xml:space="preserve">
<title>logo</title>
<g id="shadow">
	
		<image overflow="visible" enable-background="new    " width="745" height="357" xlink:href="7C84836B.png"  transform="matrix(0.5696 0 0 0.5679 145.1855 456.5762)">
	</image>
</g>
<g id="dots">
	<path d="M44.447,353.153c0.916,21.735,0.962,23.042,3.529,37.554l1.564,7.66l0.11,0.406c0.399-2.151-3.795-42.459-4.875-48.641l0,0
		c-0.055-0.25-0.125-0.586-0.203-0.829c0,0.18-0.086,0.422-0.125,0.603v3.239"/>
	<path d="M60.728,431.634c2.465,6.126,8.442,19.051,13.465,24.05l0,0c0.892,0.712,2.566,2.042,2.222-1.736
		c-0.665-7.347-10.414-32.899-17.893-40.418l0,0c-0.782-0.626-3.208-2.527-2.347,3.255c0.508,3.497,2.167,8.911,4.561,14.865"/>
	<path d="M74.482,443.831c6.541,16.03,19.716,28.494,23.111,21.852c3.63-7.089-6.431-32.962-19.622-40.003h-0.039
		c-8.864-3.372-7.354,8.606-3.45,18.175"/>
	<path d="M47.248,318.861c-0.783,6.181-1.909,14.404-2.347,20.616c-0.501,8.254,0.062,9.177,0.336,9.615
		c2.988-1.001,8.434-40.511,7.425-47.795c-0.077-0.285-0.185-0.56-0.321-0.821c-0.524,0.125-1.393,0.336-3.482,10.054l-1.564,8.332"
		/>
	<path d="M89.441,408.687c1.095,7.44,6.165,21.124,18.269,25.263l0,0c16.571,3.45,20.178-19.903,9.436-36.357
		c-5.07-7.776-10.358-9.592-12.612-10.366l0,0c-12.98-2.66-16.641,10.953-15.092,21.469"/>
	<path d="M63.592,285.916c-2.629,6.673-6.462,20.702-1.886,26.014l0,0c8.888,6.056,21.735-28.166,19.888-39.901
		c-0.099-1.395-0.67-2.714-1.62-3.74c-4.592-3.129-12.087,6.72-16.391,17.627"/>
	<path d="M77.119,297.847c-2.269,6.838-4.428,21.046,3.654,25.865h0.039l0,0c13.848,4.804,26.601-28.009,19.856-41.137
		c-0.701-1.538-1.9-2.795-3.403-3.568H97.21C88.753,276.112,80.225,288.544,77.119,297.847"/>
	<path d="M90.24,358.653c-0.962,19.778,14.012,33.486,25.873,23.69c12.698-10.523,11.133-39.471-6.196-45.464
		C97.21,334.384,90.771,348.114,90.24,358.653"/>
	<path d="M56.887,423.098c2.222,5.398,5.085,12.628,7.565,17.9c-4.827-10.312-12.017-31.178-13.981-38.806
		c1.831,6.259,4.084,14.779,6.416,20.913"/>
	<path d="M60.854,273.256c-5.641,12.917-8.958,26.1-6.455,25.654c4.037-0.728,18.683-35.411,17.619-41.708
		c-0.962-2.793-5.477,4.107-9.318,12.018C62.129,270.424,61.393,272.028,60.854,273.256"/>
	<path d="M99.237,454.847c6.259,16.039,24.332,28.502,29.934,17.321c4.631-9.239-5.915-30.004-20.796-35.058h-0.086
		c-10.781-2.262-13.089,7.448-9.052,17.752"/>
	<path d="M101.725,308.91c-4.694,18.354,7.284,29.229,18.886,22.751c13.801-7.699,18.253-36.772,2.934-42.17
		C111.81,287.144,103.986,300.17,101.725,308.91"/>
	<path d="M89.488,480.688l5.524,6.58c1.433,1.682,2.95,3.29,4.545,4.819l0,0c0.579,0.485,0.688,0.563,0.962,0.657
		c0.094-1.823-18.441-27.759-24.387-33.462l0,0l0,0l0,0c-0.681-0.563-0.782-0.666-1.174-0.783l-0.117,0.117
		c0,1.519,3.349,6.635,6.126,10.672L89.488,480.688"/>
	<path d="M96.311,484.053c8.802,11.83,21.398,21.562,21.734,16.79s-12.94-24.739-24.254-30.606
		c-5.132-2.026-4.006,2.167-2.887,4.858C92.36,478.276,94.174,481.282,96.311,484.053"/>
	<path d="M127.137,418.756c1.064,6.768,6.603,19.012,20.576,21.992l0,0c19.442,1.917,24.45-19.896,12.299-34.252
		c-5.837-6.894-11.932-8.208-14.529-8.771h-0.078c-14.967-1.495-19.755,11.673-18.276,21.038"/>
	<path d="M88.526,243.268c-7.926,11.25-10.054,22.431-4.202,21.719c8.841-1.025,27.72-30.223,23.229-35.911l0,0
		c-3.763-2.238-13.027,5.68-18.996,14.185"/>
	<path d="M100.481,253.713c-3.865,6.541-7.409,17.596-1.322,21.288l0,0c13.199,4.155,28.745-26.851,24.598-35.074
		c-0.412-0.799-1.059-1.452-1.854-1.87l0,0c-6.721-2.073-16.758,7.761-21.429,15.648"/>
	<path d="M127.747,368.323c0,6.775,3.693,20.404,17.784,23.542l0,0c20.874,2.042,28.166-23.472,15.507-37.906
		c-3.051-3.624-7.26-6.081-11.916-6.956l0,0C134.413,345.541,127.771,358.59,127.747,368.323"/>
	<path d="M118.288,493.754c2.958,4.194,10.954,12.878,19.88,15.75h0.039c8.606,1.9,7.253-5.899,3.552-12.041
		c-2.723-4.507-10.476-13.888-20.389-17.079c-9.217-1.987-7.941,5.742-4.084,11.86c0.29,0.462,0.689,1.057,1.001,1.494"/>
	<path d="M68.865,255.888l3.912-6.877c-5.53,9.684-10.407,19.726-14.599,30.059c2.934-7.041,7.323-16.289,10.695-23.158"/>
	<path d="M134.718,464.142c1.807,5.187,8.551,15.647,21.124,18.284h0.063c15.601,1.658,19.059-13.121,9.732-24.778
		c-4.27-5.479-10.358-9.25-17.165-10.633h-0.071C135.797,445.716,131.455,454.87,134.718,464.142"/>
	<path d="M85.772,232.393c-7.729,9.967-12.995,20.944-9.866,20.6c4.569-0.509,25.036-27.798,24.896-33.188l0,0
		c-1.119-2.465-8.872,4.624-15.053,12.604"/>
	<path d="M136.564,317.829c-1.15,7.386,1.502,19.364,13.496,22.071l0,0c20.154,1.808,29.026-23.401,17.298-36.584
		c-2.218-2.622-5.286-4.383-8.668-4.976h-0.149c-12.925-1.104-20.663,10.742-22.016,19.504"/>
	<path d="M121.98,262.984c-3.059,6.587-4.584,17.51,3.74,20.6h0.04c16.61,2.91,28.166-25.036,21.672-34.425
		c-0.818-1.243-2.057-2.148-3.49-2.55l0,0c-9.052-1.565-18.456,8.856-21.946,16.43"/>
	<path d="M112.6,505.021c5.187,4.318,12.158,10.007,17.58,14.036c-8.161-5.931-17.4-14.271-25.553-21.625
		c-0.195-0.172-0.368-0.353-0.571-0.501L112.6,505.021"/>
	<path d="M126.526,515.864c7.417,5.938,17.541,12.26,19.403,12.471l0.109-0.219c-1.189-2.347-18.738-17.51-26.601-21.453l0,0
		c-0.876-0.367-2.207-0.923-1.901,0.149c0.344,1.196,3.271,4.467,9.021,9.06"/>
	<path d="M86.946,228.121l-8.317,11.563l-0.125,0.188c0.782-0.735,23.729-28.948,23.902-29.151l0,0
		c0.127-0.173,0.245-0.354,0.352-0.54c-0.415,0.235-0.415,0.235-1.197,1.041C97.109,216.19,91.006,222.738,86.946,228.121"/>
	<path d="M149.622,501.805c4.416,6.909,11.44,11.735,19.474,13.379h0.062c12.448,1.471,12.096-8.23,6.392-15.546
		c-2.394-3.066-7.871-8.496-17.682-10.429h-0.102c-12.197-1.369-11.454,7.041-8.129,12.604"/>
	<path d="M122.763,207.419c-5.093,4.522-11.822,12.369-9.498,15.428l0,0c3.02,1.854,9.967-3.223,15.264-7.824
		c6.509-5.633,15.303-15.17,14.185-17.682c-0.073-0.122-0.157-0.237-0.25-0.344c-2.879-1.643-12.69,4.154-19.7,10.39"/>
	<path d="M175.167,425.797c2.503,17.768,26.249,25.192,35.786,11.188c6.932-10.171,1.862-29.042-16.985-31.351h-0.086
		c-14.912-0.305-19.927,11.61-18.714,20.17"/>
	<path d="M152.384,270.847c-4.64,14.865,7.042,22.846,18.167,16.821c13.402-7.253,15.898-29.645,3.708-33.274
		c-0.391-0.11-0.923-0.211-1.314-0.297C162.665,253.134,154.739,263.312,152.384,270.847"/>
	<path d="M132.598,215.415c-5.555,5.868-9.663,13.387-5.54,16.008l0,0c9.303,3.004,29.848-21.907,27.047-26.922
		c-0.219-0.315-0.501-0.582-0.829-0.782l0,0c-4.444-1.385-14.271,4.921-20.663,11.673"/>
	<path d="M175.503,375.2c0.744,18.112,22.611,26.812,33.924,13.504c8.888-10.46,5.43-31.624-13.629-34.018
		c-15.405-0.352-20.615,12.393-20.287,20.514"/>
	<path d="M144.599,523.704c4.405,3.692,11.908,8.504,17.995,10.358l0,0c1.229,0.297,4.499,1.056,2.527-2.348
		c-2.402-4.139-12.792-13.582-22.525-16.602l0,0c-5.289-1.221-4.311,1.393-3.254,3.066c0.665,1.08,2.12,2.896,5.226,5.478"/>
	<path d="M179.963,470.909c1.307,4.835,6.877,13.394,19.473,14.865h0.078c17.119,0.469,19.411-15.647,10.899-24.567
		c-5.477-5.742-12.456-6.556-14.74-6.822h-0.062c-14.732-0.367-17.4,9.944-15.647,16.54"/>
	<path d="M120.314,198.821c-9.075,7.135-14.286,14.083-12.197,14.755c3.083,0.994,28.948-19.912,29.175-23.549
		c-0.884-1.643-9.13,2.621-16.97,8.794"/>
	<path d="M180.964,324.322c-0.783,16.25,17.298,24.95,28.862,13.895c10.609-10.171,6.979-30.904-9.311-32.993h-0.07
		c-12.8-0.188-19.09,11.062-19.481,19.113"/>
	<path d="M149.56,222.863c-3.129,4.327-7.37,13.16-0.735,15.648h0.039c12.776,2.159,26.71-21.562,22.478-27.297
		c-0.456-0.562-1.073-0.972-1.768-1.173c-6.181-1.056-15.593,6.768-20.013,12.815"/>
	<path d="M169.894,530.135c4.618,4.324,10.333,7.301,16.524,8.606l0,0c8.105,1.04,6.173-3.85,3.748-6.9
		c-4.413-5.054-10.419-8.448-17.024-9.624c-8.536-1.071-6.924,3.576-4.875,6.166c0.484,0.623,1.007,1.217,1.565,1.775"/>
	<path d="M125.439,190.27c-6.103,4.491-12.448,9.96-14.435,12.471l0,0c-0.093,0.139-0.162,0.292-0.204,0.454
		c2.152-0.016,26.366-18.792,27.517-20.185c0.067-0.115,0.107-0.243,0.117-0.375c-0.782-0.313-6.259,2.691-12.987,7.644"/>
	<path d="M189.156,507.384c4.812,11.375,24.895,15.17,28.659,5.397c2.269-5.875-3.247-15.804-16.72-17.353h-0.078
		c-11.157-0.399-14.443,5.86-11.861,11.963"/>
	<path d="M173.625,228.802c-5.132,10.296,0.626,16.798,8.669,14.13c12.244-4.053,17.995-22.916,10.656-26.812
		c-0.529-0.24-1.083-0.421-1.651-0.54l0,0c-7.276-0.548-14.865,7.573-17.666,13.23"/>
	<path d="M190.728,276.441c-0.649,4.929,0.962,14.623,11.658,16.054h0.102c16.728,0.149,21.054-21.171,12.315-29.66
		c-1.841-1.819-4.266-2.928-6.846-3.129l0,0c-10.226-0.055-16.305,9.952-17.212,16.728"/>
	<path d="M173.422,542.599l1.26,0.5c-1.494-0.587-1.494-0.587-21.124-9.764c-0.243-0.109-0.493-0.227-0.744-0.329
		c0.117,0.116,0.249,0.216,0.392,0.298c5.985,2.941,14.02,6.775,20.201,9.303"/>
	<path d="M227.273,428.84c1.753,14.771,20.858,20.343,30.513,8.873c8.449-10.038,2.582-26.969-13.496-27.759
		c-13.191,0.696-17.893,11.462-17.009,18.886"/>
	<path d="M164.769,179.708c-6.486,3.458-12.565,8.09-11.524,9.85l0,0c1.486,0.782,5.391-0.563,12.667-4.436
		c3.028-1.62,17.823-10.124,17.666-11.736c0-0.062-0.062-0.125-0.094-0.188c-1.721-0.782-11.172,2.464-18.722,6.494"/>
	<path d="M171.356,185.106c-8.066,5.344-10.859,10.093-7.886,10.617c6.103,1.072,28.056-16.531,26.812-18.284
		c-0.067-0.069-0.144-0.13-0.227-0.18l0,0c-2.512-0.618-11.736,3.27-18.676,7.824"/>
	<path d="M227.305,378.268c0.469,5.703,4.592,15.538,17.024,16.25h0.047c17.494-0.884,22.181-22.071,10.719-31.671
		c-3.023-2.507-6.822-3.89-10.75-3.912c-13.52,0.704-17.627,12.237-17.04,19.341"/>
	<path d="M176.731,543.686c2.559,1.057,5.477,2.144,8.708,3.216l6.932,2.097l0.368,0.078c-0.657-0.579-16.633-8.02-22.047-9.631
		h-0.07c-1.197-0.306-1.565-0.329-1.76-0.125c0.18,0.892,4.358,2.918,7.871,4.396"/>
	<path d="M229.073,473.882c0.696,4.162,4.804,11.321,15.796,11.798h0.079c15.186-0.648,20.044-15.428,11-23.307
		c-4.295-3.74-9.318-3.959-11.47-4.053C231.451,458.884,228.118,468.163,229.073,473.882"/>
	<path d="M162.915,174.012c-9.036,4.061-14.185,8.129-13.238,8.896c1.495,1.197,29.911-11.853,30.411-13.965
		c-0.704-0.837-9.162,1.471-17.212,5.07"/>
	<path d="M229.159,327.131c0.29,5.375,3.826,14.646,15.249,15.327l0,0c15.906-0.837,19.99-20.342,9.6-29.582
		c-2.597-2.323-5.943-3.634-9.427-3.692l0,0c-11.282,0.586-15.812,10.844-15.429,17.947"/>
	<path d="M182.959,189.878c-6.643,5.782-7.605,10.421-4.037,10.695c6.971,0.54,23.424-16,21.437-19.036
		c-0.158-0.179-0.36-0.314-0.587-0.391C196.447,180.662,188.146,185.356,182.959,189.878"/>
	<path d="M128.106,188.063c5.188-3.654,12.323-8.208,17.69-11.587C143.684,177.705,136.149,182.188,128.106,188.063"/>
	<path d="M201.799,534.712c5.398,7.448,20.514,9.389,21.265,2.746c0.407-3.591-4.397-9.334-14.153-10.358
		c-8.966-0.337-9.561,4.248-7.12,7.612"/>
	<path d="M203.88,233.026c-2.464,10.038,5.43,15.374,12.636,11.423c9.709-5.32,10.061-21.414,2.676-24.136
		c-0.566-0.177-1.148-0.3-1.737-0.368C210.413,219.945,205.171,227.769,203.88,233.026"/>
	<path d="M194.327,548.052c5.32,2.448,15.828,5.187,15.061,3.63c-0.649-1.314-8.904-5.923-16.18-7.261l0,0
		c-3.537-0.469-3.286,0.478-2.825,1.08c0.258,0.328,1.135,1.229,3.967,2.543"/>
	<path d="M166.005,168.371c-6.259,2.464-12.299,5.602-13.691,7.127l0,0l-0.086,0.18c1.69,1.072,27.821-10.859,28.001-11.032l0,0
		c0-0.062,0-0.148-0.062-0.219c-1.4-0.227-7.425,1.291-14.153,3.912"/>
	<path d="M232.296,509.98c0.172,0.83,2.019,8.16,13.019,8.606h0.07c12.588-0.485,15.483-10.688,9.959-16.109
		c-3.536-3.474-8.723-3.677-10.421-3.739h-0.118c-10.812,0.422-13.41,6.971-12.518,11.273"/>
	<path d="M199.076,193.791c-4.913,6.329-3.521,10.57,0.947,10.006c8.012-1.017,17.322-16.101,13.559-18.863
		c-0.255-0.157-0.536-0.268-0.829-0.328C208.731,184.402,202.12,189.917,199.076,193.791"/>
	<path d="M232.437,278.561c0.125,4.694,2.816,12.722,12.182,13.3l0,0c14.028-0.782,15.554-18.081,7.73-25.537
		c-1.99-1.951-4.647-3.07-7.433-3.129l0,0C235.527,263.711,232.296,272.896,232.437,278.561"/>
	<path d="M212.51,162.049c-6.079,1.525-11.149,3.38-11.798,4.311v0.117l0,0c1.721,0.704,27.72-7.174,27.939-7.276v-0.055l0,0
		c-1.307-0.078-9.044,1.096-16.203,2.895"/>
	<path d="M279.661,377.571c0.157,1.283,1.917,12.518,14.185,12.307h0.086c14.928-1.894,16.148-20.256,7.487-26.875
		c-2.539-1.895-5.671-2.822-8.833-2.613h-0.078c-10.82,1.361-13.613,11.023-12.847,17.212"/>
	<path d="M215.342,164.303c-5.735,1.995-9.92,4.107-9.952,5.022c1.518,1.354,25.036-8.817,25.2-8.966v-0.047
		c-0.782-0.094-8.355,1.564-15.233,3.99"/>
	<path d="M279.966,427.87c0.094,1.205,1.275,11.735,13.379,11.556h0.062c15.038-1.744,17.548-18.926,9.459-25.427
		c-2.509-1.951-5.657-2.895-8.825-2.645c-11.196,1.307-14.568,10.593-14.083,16.523"/>
	<path d="M216.672,551.165c2.897,1.591,6.095,2.556,9.389,2.832l0,0c5.14,0.274,3.411-1.947,3.208-2.206
		c-1.041-1.244-4.616-3.403-9.764-3.912l0,0c-5.125-0.227-4.639,1.628-4.021,2.348c0.338,0.353,0.72,0.663,1.134,0.923"/>
	<path d="M236.294,536.229c1.463,6.259,14.028,7.589,17.94,1.917c2.23-3.239-0.375-8.27-8.567-8.567
		c-5.813,0-10.171,3.13-9.389,6.643"/>
	<path d="M161.506,168.418l-0.29,0.188c0.517,0.297,23.127-8.113,23.323-8.215l0,0c-7.888,2.062-15.598,4.752-23.057,8.043"/>
	<path d="M211.469,159.702c-5.86,1.041-11.094,2.457-12.174,3.294c0,0.055,0,0.133,0.055,0.188
		c1.815,0.29,27.837-5.156,27.947-5.234l0,0c-1.104-0.157-8.716,0.493-15.828,1.76"/>
	<path d="M220.466,166.235c-5.148,2.52-8.316,4.953-7.213,5.547l0,0c3.591,0.454,19.771-10.093,19.849-10.218l-0.047-0.055l0,0
		c-1.017-0.047-7.487,2.23-12.596,4.694"/>
	<path d="M277.838,326.748c0.195,1.166,2.285,11.407,13.449,11.228h0.062c11.688-0.861,13.973-17.056,5.899-24.254
		c-2.415-2.202-5.618-3.331-8.88-3.129c-8.113,0.603-11.791,8.841-10.531,16.125"/>
	<path d="M278.714,472.896c0.478,10.296,14.458,11.735,21.438,4.42c6.673-6.963,4.311-17.869-6.564-18.058c-0.399,0-0.939,0-1.346,0
		c-10.327,1.174-13.746,8.778-13.527,13.599"/>
	<path d="M219.309,196.505c-2.621,6.541,0.97,10.28,5.477,8.199c6.666-3.129,8.81-15.875,4.35-17.072
		c-0.141,0-0.336-0.055-0.469-0.078l0,0c-3.912,0-7.887,5.367-9.326,8.958"/>
	<path d="M236.615,234.677c0,9.897,9.107,13.41,14.31,7.714c5.203-5.696,2.676-19.02-5.477-19.606h-0.047
		c-6.353,0.399-8.739,7.503-8.755,11.884"/>
	<path d="M212.956,157.277c-6.001,0.673-11.102,1.784-11.923,2.347l0,0c0.665,0.54,25.474-2.918,25.67-2.997l0,0
		c-0.845-0.204-7.386-0.078-13.747,0.634"/>
	<path d="M275.765,509.089c-0.29,6.83,10.413,9.561,17.682,2.598c5.719-5.477,3.263-12.244-4.53-12.479c0,0-0.923,0-1.229,0
		c-7.886,0.854-11.775,6.377-11.923,9.851"/>
	<path d="M274.482,277.896c0.195,1.017,2.237,9.913,11.149,9.85l0,0c10.789-1.354,9.788-15.647,2.754-21.062
		c-1.777-1.433-4.018-2.165-6.298-2.058l0,0c-7.346,0.931-8.606,8.442-7.604,13.3"/>
	<path d="M227.281,167.901c-4.021,3.028-5.054,5.101-3.732,5.359l0,0c3.498,0.109,13.191-9.639,12.925-10.445l-0.094-0.039l0,0
		c-1.126,0-5.985,2.754-9.123,5.125"/>
	<path d="M240.863,552.456c0.086,0.18,1.056,1.815,5.477,1.933h0.055c4.319-0.078,6.259-1.894,4.812-3.317
		c-0.524-0.532-1.885-1.416-5.085-1.518h-0.062c-4.327,0.102-5.805,1.752-5.203,2.91"/>
	<path d="M241.043,197.624c-0.164,5.797,4.092,8.458,7.096,5.891c3.912-3.38,2.3-13.496-2.261-13.887l0,0
		c-3.129,0.297-4.694,4.945-4.804,7.996"/>
	<path d="M234.017,556.267l-2.605-0.188l0.892,0.071L234.017,556.267"/>
	<path d="M206.61,156.236l-0.07,0.078c0.869,0.344,19.958-1.072,20.084-1.111C219.938,155.137,213.254,155.482,206.61,156.236"/>
	<path d="M271.501,536.081c-0.485,4.162,7.042,4.804,11.962,1.04c3.451-2.62,3.764-6.415-0.782-7.096
		c-0.7-0.092-1.408-0.115-2.112-0.07c-4.632,0.328-8.692,3.129-9.044,6.134"/>
	<path d="M330.586,423.16c0,0.907,0.626,8.841,8.943,8.105l0,0c11.031-2.175,12.432-16.273,6.321-20.17
		c-1.586-0.964-3.464-1.333-5.297-1.04l0,0C332.879,411.581,330.383,418.725,330.586,423.16"/>
	<path d="M329.874,372.65c1.4,9.31,11.509,12.025,16.634,4.467c4.554-6.705,1.752-18.777-8.199-17.862h-0.109
		c-7.3,1.565-8.975,9.029-8.325,13.379"/>
	<path d="M269.592,234.138c0.736,2.73,3.286,7.347,8.176,7.339h0.055c6.963-1.072,5.727-12.057-0.329-16.141
		c-1.053-0.785-2.341-1.19-3.654-1.15h-0.07c-4.475,0.712-5.132,6.361-4.17,9.952"/>
	<path d="M235.864,168.965c-1.948,2.887-1.839,4.843-0.446,4.694c0.782-0.109,2.214-1.08,3.638-3.497
		c1.291-2.199,2.535-5.696,1.972-6.04h-0.102l0,0c-0.962,0.094-3.669,2.84-5.054,4.906"/>
	<path d="M326.455,468.327c-0.501,6.509,6.736,8.606,12.706,3.646c6.337-5.266,5.837-13.98-0.837-14.356
		c-0.578-0.013-1.156,0.016-1.729,0.086l0,0c-5.312,0.987-9.39,5.271-10.116,10.625"/>
	<path d="M324.437,321.772c0.782,2.957,3.779,8.442,9.858,8.019h0.07c8.763-1.862,8.223-14.646,1.04-18.91
		c-1.422-0.905-3.112-1.295-4.788-1.103h-0.062c-5.93,1.26-7.15,7.902-6.11,11.994"/>
	<path d="M318.014,505.247c-0.415,1.886,0.422,4.53,4.404,4.146l0,0c5.899-0.915,12.041-8.379,7.715-11.117
		c-0.974-0.532-2.1-0.717-3.192-0.524l0,0C323.138,498.315,318.718,502.032,318.014,505.247"/>
	<path d="M314.868,273.914c0.868,2.3,3.709,6.557,8.223,6.259l0,0c6.338-1.385,5.016-10.75-0.634-14.583
		c-1.226-0.918-2.745-1.355-4.271-1.229c-4.396,0.97-4.601,6.259-3.349,9.592"/>
	<path d="M265.492,551.939c-0.618,1.088,1.197,1.69,4.381,0.822c2.934-0.783,4.444-2.137,3.239-2.856
		c-0.658-0.271-1.373-0.375-2.081-0.305l0,0c-2.84,0.258-5.062,1.564-5.477,2.347"/>
	<path d="M245.033,169.341c-0.102,1.432,0.156,3.13,1.252,3.263l0,0c2.183-0.274,1.408-6.455,0.407-7.042
		c-0.064-0.032-0.133-0.054-0.204-0.062c-0.837,0.172-1.361,2.605-1.455,3.873"/>
	<path d="M263.043,197.061c0.25,0.72,1.643,4.272,4.562,4.295h0.055c3.614-0.657,1.502-7.284-1.565-9.482
		c-0.52-0.427-1.174-0.657-1.846-0.649c-1.878,0.157-2.121,3.129-1.182,5.836"/>
	<path d="M305.66,532.639c-0.962,1.713,0.313,2.566,2.793,1.862c3.489-1.002,7.252-4.491,5.398-5.657
		c-0.574-0.269-1.219-0.345-1.839-0.219C309.618,528.977,306.653,530.862,305.66,532.639"/>
	<path d="M301.302,230.711c0.892,1.713,3.129,4.209,5.555,4.045l0,0c3.442-0.83,1.886-7.042-2.347-9.506
		c-0.667-0.458-1.471-0.674-2.277-0.61C300.285,224.945,299.831,227.902,301.302,230.711"/>
	<path d="M376.34,414.421c-0.055,3.567,2.996,6.354,6.321,3.021c3.959-3.959,2.942-10.171-0.688-10.328
		c-0.281,0-0.562,0.028-0.837,0.086c-2.347,0.618-4.757,4.202-4.804,7.229"/>
	<path d="M375.252,364.067c0.353,2.019,1.94,4.866,4.875,4.428l0,0c4.506-1.463,5.077-9.577,0.782-11.579
		c-0.655-0.306-1.393-0.386-2.097-0.227l0,0c-3.005,1.009-4.021,4.937-3.6,7.386"/>
	<path d="M366.623,313.784c0.133,0.422,1.447,4.084,4.576,3.537l0,0c3.607-0.947,2.621-7.464-0.523-9.162
		c-0.638-0.364-1.388-0.479-2.105-0.32l0,0c-2.604,0.829-2.589,4.005-1.939,5.946"/>
	<path d="M369.916,460.151c-0.07,0.352-0.617,3.505,2.465,2.91l0,0c3.959-1.056,6.103-7.041,3.764-8.152
		c-0.497-0.202-1.046-0.238-1.565-0.102l0,0c-2.809,0.837-4.334,3.653-4.694,5.344"/>
	<path d="M63.756,401.019c0,0-0.946,12.949-3.873,12.62c-2.926-0.328-6.713-11.29-8.528-17.525
		c-1.815-6.235-4.334-16.899-3.388-26.288c0.947-9.389,5.868-10.954,9.944-10.523C66.158,360.147,66.439,375.302,63.756,401.019z"/>
	<path d="M51.653,360.969c-0.958-3.28-1.652-6.631-2.074-10.022c-0.605-5.007-0.655-10.066-0.148-15.084
		c0.464-4.122,1.257-8.201,2.371-12.197c1.111-3.653,3.129-8.52,4.796-10.045c1.667-1.526,2.52-1.643,3.513-1.432
		c0.994,0.211,2.347,0.9,3.802,5.18c1.455,4.279,1.643,10.507,1.674,12.854s0,5.093-0.086,7.276
		C64.844,352.011,56.715,377.446,51.653,360.969z"/>
	<path d="M65.469,337.646c0,0,3.826-8.301,7.401-11.423c3.576-3.122,7.042-1.917,9.451-0.172s4.585,6.134,5.876,10.656
		c1.037,3.584,1.639,7.28,1.792,11.008c0.208,3.624-0.002,7.26-0.626,10.836c-0.542,3.233-1.598,6.358-3.129,9.256
		c-1.969,3.943-5.242,7.083-9.264,8.888c0,0-11.626,5.649-16.579-9.35C57.27,357.91,65.469,337.646,65.469,337.646z"/>
	<path d="M61.041,370.96c6.564-6.799,15.953,5.727,15.953,5.727c18.628,27.235,10.304,43.329,9.287,45.073
		c-0.102,0.18-11.04,15.577-22.533-20.482C63.717,401.277,54.446,377.767,61.041,370.96z"/>
	<ellipse id="white_glow" cx="267.707" cy="364.443" rx="267.707" ry="233.063"/>
</g>
<g id="TAG">
	<path d="M301.231,414.054c0.148,1.03-0.567,1.986-1.598,2.135c-0.176,0.025-0.354,0.025-0.53,0.001h-26.656
		c-1.031,0.148-1.987-0.565-2.136-1.597c-0.026-0.179-0.026-0.36,0-0.539V293.152c0.145-1.031-0.574-1.984-1.606-2.129
		c-0.176-0.025-0.354-0.024-0.53,0.001h-34.745c-1.031,0.145-1.985-0.574-2.129-1.605c-0.024-0.176-0.024-0.354,0.001-0.53v-23.472
		c-0.144-1.031,0.576-1.984,1.607-2.128c0.173-0.024,0.349-0.024,0.521,0h104.674c1.032-0.144,1.984,0.575,2.129,1.607
		c0.023,0.173,0.023,0.348,0,0.521v23.472c0.147,1.03-0.567,1.986-1.598,2.135c-0.177,0.025-0.354,0.025-0.531,0.001h-34.745
		c-1.031-0.144-1.984,0.575-2.128,1.607c-0.024,0.173-0.024,0.348,0,0.521V414.054z"/>
	<path d="M376.262,275.94c1.711-5.544,4.84-9.026,9.389-10.445c4.548-1.418,10.731-2.128,18.55-2.128
		c8.101,0,14.461,0.709,19.082,2.128c4.621,1.419,7.779,4.9,9.475,10.445l42.852,138.998c0,0.853-0.501,1.275-1.495,1.275h-27.931
		c-1.266,0.106-2.429-0.701-2.77-1.925l-11.29-36.905c-0.269-1.298-1.445-2.206-2.77-2.136h-50.072c-1.424,0-2.347,0.782-2.77,2.347
		l-11.298,36.451c-0.266,1.3-1.444,2.209-2.77,2.136h-27.751c-1.142,0-1.705-0.431-1.705-1.275L376.262,275.94z M406.774,294.913
		c-0.248-1.063-0.604-2.099-1.064-3.09c-0.303-0.53-0.886-0.835-1.494-0.782c-0.715,0-1.497,1.278-2.347,3.833l-14.928,48.609
		c0.011,0.218-0.023,0.437-0.103,0.642c-0.07,0.129-0.107,0.275-0.109,0.422c0,0.994,0.563,1.494,1.706,1.494h31.718
		c1.137,0,1.705-0.498,1.705-1.494c-0.001-0.147-0.035-0.292-0.102-0.422c-0.086-0.203-0.123-0.422-0.109-0.642L406.774,294.913z"/>
	<path d="M599.044,263.328c1.03-0.148,1.986,0.567,2.135,1.598c0.025,0.176,0.025,0.354,0.001,0.53v23.472
		c0.149,1.03-0.565,1.987-1.597,2.136c-0.179,0.026-0.36,0.026-0.539,0h-65.235c-1.606,0.102-3.154,0.643-4.475,1.565
		c-1.775,1.126-3.389,2.49-4.796,4.053c-1.445,1.573-2.729,3.287-3.834,5.117c-0.915,1.364-1.455,2.945-1.564,4.584v55.62
		c0,7.824,1.776,14.148,5.328,18.973c3.552,4.824,8.1,7.242,13.645,7.252h25.998c2.464,0.049,4.906-0.462,7.144-1.494
		c1.91-0.889,3.644-2.116,5.116-3.623c1.282-1.321,2.294-2.878,2.981-4.585c0.585-1.386,0.908-2.869,0.954-4.374v-19.794
		c0.145-1.031-0.575-1.984-1.606-2.128c-0.173-0.024-0.349-0.024-0.521,0h-34.776c-1.031,0.145-1.984-0.574-2.129-1.605
		c-0.025-0.176-0.024-0.354,0.001-0.531v-23.471c-0.145-1.031,0.575-1.984,1.606-2.128c0.173-0.024,0.349-0.024,0.521,0h66.307
		c1.03-0.148,1.986,0.567,2.135,1.598c0.025,0.176,0.025,0.354,0.001,0.53v47.968c-0.147,4.102-0.901,8.16-2.238,12.041
		c-1.597,4.959-4.09,9.584-7.354,13.645c-3.722,4.594-8.324,8.397-13.535,11.188c-5.612,3.129-12.612,4.694-20.999,4.694h-37.108
		c-6.355,0.122-12.623-1.501-18.12-4.694c-5.158-3.044-9.676-7.062-13.301-11.83c-3.623-4.731-6.407-10.051-8.23-15.726
		c-1.782-5.409-2.706-11.063-2.738-16.758v-60.541c0.075-5.056,1.125-10.05,3.091-14.709c2.052-5.107,4.896-9.86,8.426-14.083
		c3.465-4.191,7.651-7.729,12.361-10.445c4.596-2.676,9.822-4.075,15.14-4.053h71.838L599.044,263.328z"/>
</g>
<g id="cyber">
	<path d="M411.97,460.487v-12.33c0-2.269-0.345-3.755-1.033-4.46c-0.688-0.704-2.151-1.048-4.381-1.048
		c-2.496,0-4.061,0.352-4.694,1.048s-0.963,2.184-0.963,4.46v45.112c0,2.273,0.345,3.781,1.033,4.521
		c0.688,0.741,2.237,1.114,4.647,1.119c2.232,0,3.692-0.415,4.381-1.244c0.681-0.829,1.033-2.292,1.033-4.396v-20.342h11.993v21.641
		c0.062,2.969-0.2,5.936-0.782,8.849c-0.353,1.941-1.327,3.716-2.777,5.054c-1.541,1.228-3.395,2-5.352,2.229
		c-2.82,0.388-5.666,0.563-8.512,0.524c-3.141,0.053-6.28-0.146-9.389-0.595c-2.05-0.252-3.991-1.064-5.61-2.347
		c-1.459-1.33-2.434-3.108-2.77-5.055c-0.533-2.852-0.772-5.752-0.712-8.652v-47.858c-0.071-2.962,0.188-5.922,0.774-8.825
		c0.375-1.932,1.346-3.697,2.777-5.047c1.605-1.297,3.556-2.094,5.61-2.292c3.079-0.389,6.183-0.563,9.286-0.524
		c2.959-0.051,5.915,0.169,8.834,0.657c1.974,0.297,3.827,1.136,5.351,2.426c1.385,1.361,2.291,3.135,2.582,5.054
		c0.479,2.814,0.693,5.667,0.642,8.521v13.77L411.97,460.487z"/>
	<path d="M458.528,431.375h13.152v79.865c0,6.379-1.375,11.1-4.123,14.161c-2.749,3.062-7.394,4.593-13.935,4.593h-17.274v-11.282
		h14.082c2.927,0,4.969-0.503,6.126-1.51c1.158-1.007,1.737-2.994,1.737-5.962V501.14c-0.941,1.742-2.409,3.141-4.193,3.998
		c-2.25,1-4.699,1.472-7.159,1.377c-2.15,0.053-4.299-0.189-6.384-0.72c-1.582-0.421-2.998-1.313-4.061-2.559
		c-1.126-1.434-1.879-3.124-2.19-4.921c-0.476-2.58-0.69-5.201-0.642-7.823v-59.117h13.089v56.652c0,2.607,0.431,4.357,1.291,5.25
		c0.86,0.892,2.407,1.327,4.64,1.307c1.278,0.062,2.536-0.332,3.552-1.111c0.953-0.812,1.721-1.816,2.253-2.949L458.528,431.375z"/>
	<path d="M520.055,494.584c0.039,2.617-0.134,5.233-0.516,7.823c-0.229,1.774-0.894,3.465-1.933,4.921
		c-0.981,1.248-2.34,2.146-3.873,2.559c-2.063,0.533-4.191,0.775-6.321,0.72c-2.571,0.106-5.132-0.387-7.48-1.439
		c-1.999-1.073-3.586-2.779-4.514-4.851v5.641h-12.252V406.323h13.159v29.902c0.922-1.727,2.335-3.143,4.061-4.068
		c2.231-1.062,4.69-1.557,7.159-1.439c2.096-0.058,4.187,0.23,6.188,0.854c1.541,0.503,2.892,1.463,3.873,2.754
		c1.023,1.462,1.686,3.146,1.932,4.913c0.378,2.475,0.551,4.977,0.517,7.479V494.584z M495.935,494.584
		c1.116,2.712,3.051,4.068,5.805,4.068c2.232,0,3.714-0.438,4.444-1.314c0.729-0.877,1.095-2.627,1.095-5.25v-42.749
		c0-2.608-0.365-4.358-1.095-5.25c-0.73-0.892-2.212-1.33-4.444-1.314c-2.754,0-4.688,1.356-5.805,4.068V494.584z"/>
	<path d="M542.36,475.306v18.487c0,2.541,0.323,4.181,0.971,4.922c0.646,0.74,2.172,1.11,4.576,1.11c2.321,0,3.826-0.37,4.515-1.11
		c0.688-0.741,1.033-2.381,1.033-4.922v-10.616h11.868v11.407c0.062,2.945-0.177,5.889-0.712,8.786
		c-0.329,1.92-1.254,3.688-2.645,5.054c-1.496,1.272-3.337,2.071-5.289,2.292c-2.906,0.393-5.838,0.567-8.771,0.524
		c-3.104,0.041-6.207-0.135-9.286-0.524c-2.071-0.207-4.039-1.002-5.673-2.292c-1.463-1.328-2.44-3.107-2.777-5.054
		c-0.533-2.897-0.77-5.842-0.704-8.786v-47.866c-0.065-2.945,0.171-5.89,0.704-8.786c0.34-1.944,1.316-3.72,2.777-5.047
		c1.634-1.289,3.602-2.085,5.673-2.292c3.079-0.389,6.183-0.563,9.286-0.524c2.933-0.042,5.864,0.133,8.771,0.524
		c1.952,0.222,3.793,1.02,5.289,2.292c1.389,1.364,2.313,3.129,2.645,5.047c0.535,2.896,0.773,5.841,0.712,8.786v28.588H542.36z
		 M542.36,464.548h11.087v-16.782c-0.001-2.534-0.345-4.151-1.033-4.851c-0.688-0.698-2.193-1.048-4.515-1.048
		c-2.409,0-3.935,0.35-4.576,1.048c-0.642,0.699-0.966,2.316-0.971,4.851L542.36,464.548z"/>
	<path d="M588.92,509.926h-13.16v-78.551h12.253v5.242c1.002-1.805,2.501-3.285,4.318-4.264c2.376-1.195,5.019-1.761,7.675-1.644
		c4.471,0,7.6,1.138,9.389,3.411c1.789,2.274,2.671,6.471,2.645,12.589v19.56H600.1v-17.995c0-2.086-0.344-3.528-1.032-4.326
		s-2.149-1.192-4.382-1.182c-2.921,0-4.855,1.442-5.805,4.326L588.92,509.926z"/>
</g>
</svg>
